<svg width="33" height="22" viewBox="0 0 33 22" fill="none" xmlns="http://www.w3.org/2000/svg">
<path d="M21.5472 21.495C18.3718 21.495 16.7841 19.5545 16.7841 15.6734C16.7841 11.8467 18.6025 8.16918 22.2393 4.64096C25.4147 1.54699 28.2372 0 30.707 0C31.8469 0 32.444 0.312112 32.4982 0.936335C32.5254 1.28916 32.2404 1.76411 31.6433 2.36119L29.7299 4.15244C26.2017 7.40926 24.899 10.4218 25.8218 13.1901C26.0932 13.9772 26.3646 14.6557 26.636 15.2256C26.9345 15.7956 27.1652 16.3112 27.328 16.7726C27.518 17.234 27.4095 17.8582 27.0024 18.6453C26.5952 19.4052 25.876 20.0701 24.8447 20.6401C23.8405 21.21 22.7413 21.495 21.5472 21.495ZM5.2631 21.495C2.0877 21.495 0.5 19.5545 0.5 15.6734C0.5 11.8467 2.31839 8.16918 5.95517 4.64096C9.13057 1.54699 11.9531 0 14.4229 0C15.5628 0 16.1599 0.312112 16.2141 0.936335C16.2413 1.28916 15.9563 1.76411 15.3592 2.36119L13.4458 4.15244C9.91763 7.40926 8.6149 10.4218 9.53767 13.1901C9.80907 13.9772 10.0805 14.6557 10.3519 15.2256C10.6504 15.7956 10.8811 16.3112 11.0439 16.7726C11.2339 17.234 11.1254 17.8582 10.7183 18.6453C10.3112 19.4052 9.59195 20.0701 8.56062 20.6401C7.55644 21.21 6.45726 21.495 5.2631 21.495Z" fill="#E4C620"/>
</svg>
