<svg width="120" height="46" viewBox="0 0 120 46" fill="none" xmlns="http://www.w3.org/2000/svg">
<g clip-path="url(#clip0_413_1396)">
<path d="M25.3996 7.97303C25.3996 5.00414 23.4378 3.51971 19.5141 3.51971C17.0524 3.51971 14.561 4.26564 12.0396 5.75756C11.3086 6.1902 10.7342 6.59301 10.3165 6.966C9.91369 7.32405 9.52581 7.50308 9.15282 7.50308C8.77983 7.50308 8.42178 7.41357 8.07865 7.23454C7.73553 7.04058 7.42967 6.8019 7.16113 6.51843C6.17648 5.42933 6.28092 4.37754 7.47443 3.36306C9.26471 1.82639 12.2336 0.834283 16.3811 0.386713C17.2165 0.297198 18.2758 0.252441 19.5588 0.252441C20.8419 0.252441 22.192 0.483674 23.6093 0.946176C25.0416 1.40868 26.2426 2.03528 27.2123 2.82597C29.1518 4.42229 30.1215 6.45874 30.1215 8.93531C30.1215 11.8743 28.7788 14.5523 26.0934 16.9692C23.766 19.0877 21.0134 20.602 17.8357 21.512C18.701 22.2281 19.5141 23.2576 20.2749 24.6003L22.0652 27.8004C23.6317 30.7096 25.0341 32.2911 26.2724 32.5446C26.705 32.6191 27.1526 32.6044 27.6151 32.4999C28.0776 32.3953 28.376 32.3506 28.5102 32.3656C28.6594 32.3656 28.7564 32.4848 28.8012 32.7237C28.8608 32.9625 28.8012 33.2608 28.6221 33.6188C28.4431 33.9769 28.1522 34.3127 27.7494 34.6257C26.8095 35.3719 25.7801 35.6998 24.6611 35.6103C23.5422 35.5358 22.6321 35.3121 21.931 34.9393C21.2447 34.5512 20.6255 34.0664 20.0735 33.4845C19.5364 32.9027 19.0516 32.2539 18.6189 31.5378C18.2012 30.8217 17.8133 30.0905 17.4552 29.3443L16.4482 27.1516C16.1349 26.4355 15.844 25.8236 15.5755 25.3164C15.3069 24.7942 15.0757 24.3243 14.8817 23.9065C14.6878 23.4739 14.4715 23.086 14.2327 22.7429C13.7255 21.9671 13.0765 21.4747 12.2858 21.2659C9.15282 29.3221 5.96762 33.9171 2.73019 35.051C2.46164 35.1556 2.18564 35.2079 1.90218 35.2079C1.63364 35.2079 1.38747 35.1556 1.16369 35.051C0.939904 34.9615 0.753417 34.8423 0.604226 34.693C0.290927 34.4094 0.134277 34.0961 0.134277 33.7531C0.134277 33.4101 0.24617 33.1562 0.469955 32.9922C2.70781 31.3659 5.19182 26.6217 7.922 18.7595L9.26471 14.9775C10.8014 10.6211 12.0993 7.93572 13.1586 6.92124C13.5316 6.63777 13.9194 6.49605 14.3223 6.49605C14.7251 6.49605 15.0757 6.56318 15.374 6.69745C15.6724 6.81679 15.9335 6.97344 16.1573 7.1674C16.6646 7.61497 16.9182 8.06999 16.9182 8.53249C16.9182 8.995 16.8137 9.4127 16.6049 9.78569C16.4109 10.1437 16.1871 10.651 15.9335 11.3074C15.2025 13.2171 14.6356 14.7463 14.2327 15.895L13.0914 19.1175C16.2692 18.6998 19.0814 17.4541 21.5281 15.3803C24.1091 13.2022 25.3996 10.733 25.3996 7.97303ZM31.8223 27.2186C31.8819 25.9206 32.0982 24.6823 32.4712 23.5037C32.8442 22.3102 33.344 21.1614 33.9706 20.0574C34.5972 18.9385 35.3282 17.8867 36.1637 16.9021C37.0141 15.9025 37.9318 15.0297 38.9164 14.2838C41.0497 12.6875 43.2056 11.8893 45.3836 11.8893C47.9348 11.8893 49.6356 12.9411 50.4859 15.0446C50.7842 15.7608 50.926 16.6111 50.9113 17.5958C50.8963 18.5655 50.7097 19.4681 50.3517 20.3036C49.9936 21.1242 49.4938 21.8775 48.8525 22.5638C48.2259 23.2352 47.4722 23.8394 46.5921 24.3765C45.7267 24.9136 44.7792 25.3686 43.7502 25.7416C41.6316 26.4874 39.364 26.8755 36.9471 26.9053C36.8873 27.114 36.8501 27.4273 36.835 27.8452C36.82 28.263 36.8648 28.7328 36.9693 29.2548C37.0739 29.7622 37.2529 30.2173 37.5064 30.6201C38.0435 31.5152 38.8194 31.9628 39.8338 31.9628C41.5643 31.9628 43.2503 31.4554 44.8913 30.4411C45.4731 30.098 45.9429 29.7475 46.301 29.3895C46.6741 29.0164 46.9949 28.8298 47.2634 28.8298C47.532 28.8298 47.7633 28.9938 47.9573 29.3221C48.1661 29.6354 48.2703 29.9935 48.2703 30.3963C48.2703 31.1869 48.0469 31.8733 47.5993 32.4551C45.7195 34.3349 42.922 35.2748 39.2072 35.2748C37.0141 35.2748 35.2536 34.6185 33.9258 33.3055C32.4339 31.8135 31.7327 29.7847 31.8223 27.2186ZM44.8913 14.8656C43.3248 14.8656 41.8181 15.9398 40.3708 18.0881C39.1474 19.9381 38.1627 22.1312 37.4169 24.6674C39.9082 24.4138 42.0716 23.4291 43.9067 21.7134C45.5924 20.1022 46.4356 18.5581 46.4356 17.0811C46.4356 15.6041 45.9207 14.8656 44.8913 14.8656ZM52.1419 31.1124C52.1419 30.6498 52.239 30.2248 52.433 29.837C52.6418 29.4339 52.8953 29.0984 53.1936 28.8298C53.8202 28.248 54.4768 27.9572 55.1629 27.9572C55.7597 27.9572 56.058 28.263 56.058 28.8746C56.058 30.426 56.5729 31.5077 57.6023 32.1193C57.9754 32.3434 58.3632 32.4551 58.766 32.4551C59.1688 32.4551 59.5118 32.4104 59.7954 32.3209C60.079 32.2313 60.34 32.0896 60.5788 31.8958C61.1159 31.463 61.3845 30.9484 61.3845 30.3515C61.3845 29.7547 61.2498 29.2104 60.9813 28.7177C60.7127 28.2107 60.3772 27.6812 59.9744 27.129L58.699 25.3388C56.9088 22.9517 56.0136 20.7512 56.0136 18.7371C56.0136 17.0662 56.7222 15.5519 58.1394 14.1943C59.7506 12.6576 61.817 11.8893 64.3384 11.8893C66.5462 11.8893 68.2695 12.4338 69.5077 13.5229C70.522 14.4031 71.0294 15.4101 71.0294 16.544C71.0294 17.7226 70.5818 18.6625 69.6867 19.3637C68.8811 19.9903 68.0754 20.2215 67.2698 20.0574C66.9118 19.9828 66.6357 19.8038 66.4416 19.5203C66.2479 19.222 66.2107 18.8863 66.3299 18.5133C66.4492 18.1403 66.509 17.7524 66.509 17.3496C66.509 16.9468 66.4345 16.5738 66.2852 16.2307C66.1359 15.8876 65.9346 15.5967 65.6811 15.3579C65.1587 14.8656 64.607 14.6195 64.0248 14.6195C63.458 14.6195 62.9882 14.6866 62.6151 14.8209C62.242 14.9402 61.914 15.1192 61.6304 15.3579C61.0486 15.895 60.7579 16.5589 60.7579 17.3496C60.7579 18.1254 60.8918 18.7968 61.1603 19.3637C61.4289 19.9306 61.7572 20.4976 62.145 21.0645C62.5481 21.6314 62.9807 22.2058 63.4433 22.7876C63.9055 23.3695 64.3309 23.9811 64.7187 24.6226C65.6586 26.1294 66.1287 27.4574 66.1287 28.606C66.1287 29.74 65.8899 30.6946 65.4126 31.4705C64.9349 32.2313 64.3159 32.8877 63.555 33.4398C61.9287 34.6482 60.1087 35.2523 58.0946 35.2523C56.1701 35.2523 54.6483 34.79 53.5294 33.8652C52.6046 33.0892 52.1419 32.1716 52.1419 31.1124ZM85.665 29.1879C86.0975 29.1879 86.3138 29.479 86.3138 30.0604C86.3138 30.5531 86.1648 31.0304 85.8662 31.4927C85.4637 32.3581 84.6581 33.1788 83.4493 33.9547C82.0769 34.8348 80.6969 35.2748 79.3095 35.2748C76.9076 35.2748 75.3859 34.2007 74.7442 32.0523C73.9834 29.5012 75.1245 24.093 78.168 15.8279C76.4525 15.6787 75.5202 15.3803 75.3708 14.9327C75.3261 14.7985 75.3035 14.6568 75.3035 14.5076C75.3035 14.3435 75.3708 14.1569 75.5051 13.9481C75.6544 13.7392 75.8406 13.5378 76.0648 13.3439C76.5868 12.9112 77.1164 12.6949 77.6535 12.6949H79.4212C81.0324 8.92038 82.1814 6.77204 82.8678 6.24988C83.1958 6.01117 83.5614 5.89183 83.9642 5.89183C84.367 5.89183 84.7025 5.94403 84.971 6.04848C85.2396 6.15292 85.4784 6.30209 85.6872 6.49605C86.1648 6.94362 86.4033 7.44339 86.4033 7.99541C86.4033 8.29378 86.3138 8.63694 86.1347 9.02482L84.4791 12.6278H85.0162C85.941 12.6278 86.6869 12.6203 87.254 12.6054C87.254 12.6054 87.679 12.5979 88.5294 12.583C88.813 12.5681 89.1635 12.5606 89.5814 12.5606C90.0139 12.5606 90.2302 12.7173 90.2302 13.0306C90.2302 14.9999 87.9028 15.9845 83.2481 15.9845H83.0691L81.5473 19.9232C79.8315 24.5779 78.9736 27.8376 78.9736 29.7024C78.9736 30.2248 79.0932 30.6351 79.3317 30.9334C79.5705 31.217 80.0181 31.3588 80.6744 31.3588C81.331 31.3588 81.9276 31.2467 82.4647 31.0229C83.0017 30.7991 83.4719 30.5531 83.8747 30.2846C84.2775 30.001 84.6205 29.7475 84.9041 29.5234C85.2024 29.2999 85.4562 29.1879 85.665 29.1879ZM91.1926 33.5293C90.566 32.9324 90.0733 32.1791 89.7153 31.2692C89.3572 30.344 89.1711 29.2548 89.156 28.0016C89.141 26.7484 89.2903 25.4805 89.6036 24.1975C89.9319 22.9144 90.387 21.6761 90.9685 20.4826C91.5654 19.2891 92.274 18.1702 93.0946 17.1258C93.93 16.0815 94.8477 15.1715 95.8474 14.3957C98.0254 12.7247 100.285 11.8893 102.628 11.8893C105.701 11.8893 107.782 13.2394 108.871 15.9398C109.647 17.8942 109.692 20.2588 109.006 23.0338C108.379 25.5849 107.23 27.9271 105.559 30.0604C103.904 32.1941 101.949 33.7083 99.6965 34.6035C98.5625 35.051 97.4436 35.2748 96.3393 35.2748C95.2505 35.2748 94.2734 35.133 93.4079 34.8498C92.5575 34.5662 91.8192 34.1262 91.1926 33.5293ZM95.4668 22.6757C95.0192 23.7797 94.6611 24.9136 94.3926 26.0773C94.1391 27.2411 94.0195 28.345 94.0345 29.3895C94.0496 30.4185 94.206 31.2317 94.5047 31.8285C94.8176 32.4104 95.3174 32.7015 96.0038 32.7015C96.6902 32.7015 97.3616 32.4702 98.0179 32.0076C98.6893 31.5303 99.3384 30.9037 99.965 30.1278C100.592 29.3519 101.181 28.4567 101.733 27.4423C102.285 26.428 102.77 25.3686 103.188 24.2646C104.097 21.8626 104.537 19.7292 104.508 17.8643C104.508 16.2233 104.172 15.1789 103.5 14.7313C103.232 14.5523 102.852 14.4628 102.359 14.4628C101.882 14.4628 101.33 14.6866 100.703 15.1342C100.077 15.5668 99.4501 16.1561 98.8235 16.9021C98.1969 17.648 97.5925 18.5208 97.011 19.5203C96.4288 20.5199 95.9143 21.5717 95.4668 22.6757ZM113.257 34.2902C112.93 33.9618 112.668 33.5891 112.474 33.1712C112.28 32.7387 112.183 32.2464 112.183 31.6943C112.183 31.1275 112.288 30.6276 112.497 30.1951C112.72 29.7475 112.996 29.3895 113.325 29.1209C113.907 28.6433 114.518 28.4048 115.16 28.4048C115.816 28.4048 116.368 28.4492 116.816 28.5387C117.278 28.6282 117.711 28.77 118.114 28.9641C119.039 29.4414 119.501 30.1278 119.501 31.0229C119.501 32.1418 119.136 33.119 118.405 33.9547C117.719 34.7302 117.002 35.1556 116.257 35.2301C115.525 35.3045 114.929 35.2451 114.466 35.051C114.004 34.872 113.601 34.6185 113.257 34.2902Z" fill="white"/>
<path d="M44.757 44.4581C64.087 41.2796 86.3868 40.4342 106.913 42.053" stroke="#E4C620" stroke-width="3" stroke-linecap="round"/>
</g>
<defs>
<clipPath id="clip0_413_1396">
<rect width="120" height="45.8824" fill="white"/>
</clipPath>
</defs>
</svg>
