<svg width="13" height="15" viewBox="0 0 13 15" fill="none" xmlns="http://www.w3.org/2000/svg">
<path d="M0 13.4375V6H12.25V13.4375C12.25 14.1758 11.6484 14.75 10.9375 14.75H1.3125C0.574219 14.75 0 14.1758 0 13.4375ZM8.75 8.07812V9.17188C8.75 9.36328 8.88672 9.5 9.07812 9.5H10.1719C10.3359 9.5 10.5 9.36328 10.5 9.17188V8.07812C10.5 7.91406 10.3359 7.75 10.1719 7.75H9.07812C8.88672 7.75 8.75 7.91406 8.75 8.07812ZM8.75 11.5781V12.6719C8.75 12.8633 8.88672 13 9.07812 13H10.1719C10.3359 13 10.5 12.8633 10.5 12.6719V11.5781C10.5 11.4141 10.3359 11.25 10.1719 11.25H9.07812C8.88672 11.25 8.75 11.4141 8.75 11.5781ZM5.25 8.07812V9.17188C5.25 9.36328 5.38672 9.5 5.57812 9.5H6.67188C6.83594 9.5 7 9.36328 7 9.17188V8.07812C7 7.91406 6.83594 7.75 6.67188 7.75H5.57812C5.38672 7.75 5.25 7.91406 5.25 8.07812ZM5.25 11.5781V12.6719C5.25 12.8633 5.38672 13 5.57812 13H6.67188C6.83594 13 7 12.8633 7 12.6719V11.5781C7 11.4141 6.83594 11.25 6.67188 11.25H5.57812C5.38672 11.25 5.25 11.4141 5.25 11.5781ZM1.75 8.07812V9.17188C1.75 9.36328 1.88672 9.5 2.07812 9.5H3.17188C3.33594 9.5 3.5 9.36328 3.5 9.17188V8.07812C3.5 7.91406 3.33594 7.75 3.17188 7.75H2.07812C1.88672 7.75 1.75 7.91406 1.75 8.07812ZM1.75 11.5781V12.6719C1.75 12.8633 1.88672 13 2.07812 13H3.17188C3.33594 13 3.5 12.8633 3.5 12.6719V11.5781C3.5 11.4141 3.33594 11.25 3.17188 11.25H2.07812C1.88672 11.25 1.75 11.4141 1.75 11.5781ZM10.9375 2.5C11.6484 2.5 12.25 3.10156 12.25 3.8125V5.125H0V3.8125C0 3.10156 0.574219 2.5 1.3125 2.5H2.625V1.1875C2.625 0.96875 2.81641 0.75 3.0625 0.75H3.9375C4.15625 0.75 4.375 0.96875 4.375 1.1875V2.5H7.875V1.1875C7.875 0.96875 8.06641 0.75 8.3125 0.75H9.1875C9.40625 0.75 9.625 0.96875 9.625 1.1875V2.5H10.9375Z" fill="#90A3B1"/>
</svg>
