<svg width="13" height="9" viewBox="0 0 13 9" fill="none" xmlns="http://www.w3.org/2000/svg">
<path d="M12.5391 1.42969C12.3984 0.867188 11.9531 0.421875 11.4141 0.28125C10.4062 0 6.42188 0 6.42188 0C6.42188 0 2.41406 0 1.40625 0.28125C0.867188 0.421875 0.421875 0.867188 0.28125 1.42969C0 2.41406 0 4.52344 0 4.52344C0 4.52344 0 6.60938 0.28125 7.61719C0.421875 8.17969 0.867188 8.60156 1.40625 8.74219C2.41406 9 6.42188 9 6.42188 9C6.42188 9 10.4062 9 11.4141 8.74219C11.9531 8.60156 12.3984 8.17969 12.5391 7.61719C12.8203 6.60938 12.8203 4.52344 12.8203 4.52344C12.8203 4.52344 12.8203 2.41406 12.5391 1.42969ZM5.10938 6.42188V2.625L8.4375 4.52344L5.10938 6.42188Z" fill="#90A3B1"/>
</svg>
